# xmcd
#
# Track frame offsets:
#	150
#	18790
#	36497
#	56095
#	72005
#	90327
#	107045
#	121970
#	136987
#	160215
#
# Disc length: 2372 seconds
#
# Revision: 0
# Processed by: cddbd v1.4PL0 Copyright (c) Steve Scherf et al.
# Submitted via: EasyCDDAExtractor 4.6.9.1
#
DISCID=7d09420a
DTITLE=박정현 - 제1회 미주복음성가 경연대회
DYEAR=1900
DGENRE=Gospel
TTITLE0=Every Heart That Is Breaking
TTITLE1=Every Drop Of His Blood
TTITLE2=With My Lips
TTITLE3=His Name Is Jesus
TTITLE4=모든 것 되시는 주님
TTITLE5=Crying Inside Dying Inside
TTITLE6=고개들어
TTITLE7=Amazing Grace
TTITLE8=Refiners Fires
TTITLE9=Friends
EXTD=
EXTT0=
EXTT1=
EXTT2=
EXTT3=
EXTT4=
EXTT5=
EXTT6=
EXTT7=
EXTT8=
EXTT9=
PLAYORDER=
